<svg width="1000" height="200" viewBox="0 0 1000 200" fill="none" xmlns="http://www.w3.org/2000/svg">
<rect width="1000" height="200" rx="16" fill="#5865F2"/>
<g clip-path="url(#clip0_105_2)">
<path d="M327.796 66.4806C320.885 63.3094 313.473 60.9729 305.724 59.6348C305.583 59.6089 305.442 59.6735 305.369 59.8026C304.416 61.4979 303.36 63.7095 302.621 65.4478C294.286 64.2001 285.995 64.2001 277.831 65.4478C277.091 63.6709 275.997 61.4979 275.04 59.8026C274.967 59.6778 274.826 59.6132 274.685 59.6348C266.94 60.9687 259.529 63.3051 252.613 66.4806C252.553 66.5064 252.502 66.5495 252.468 66.6054C238.41 87.6075 234.559 108.093 236.448 128.325C236.457 128.424 236.512 128.519 236.589 128.579C245.864 135.391 254.849 139.526 263.666 142.266C263.807 142.31 263.957 142.258 264.047 142.142C266.132 139.293 267.992 136.29 269.586 133.132C269.68 132.947 269.59 132.727 269.398 132.654C266.449 131.535 263.64 130.171 260.939 128.622C260.725 128.497 260.708 128.192 260.905 128.046C261.473 127.62 262.042 127.176 262.585 126.729C262.683 126.647 262.82 126.63 262.935 126.682C280.682 134.784 299.894 134.784 317.431 126.682C317.546 126.626 317.683 126.643 317.786 126.725C318.329 127.172 318.897 127.62 319.47 128.046C319.666 128.192 319.654 128.497 319.44 128.622C316.739 130.201 313.93 131.535 310.977 132.65C310.785 132.723 310.699 132.947 310.793 133.132C312.422 136.286 314.281 139.289 316.328 142.137C316.414 142.258 316.568 142.31 316.709 142.266C325.569 139.526 334.553 135.391 343.828 128.579C343.91 128.519 343.961 128.429 343.969 128.33C346.23 104.939 340.182 84.6214 327.937 66.6096C327.907 66.5495 327.856 66.5064 327.796 66.4806ZM272.236 116.006C266.893 116.006 262.491 111.101 262.491 105.077C262.491 99.053 266.808 94.1479 272.236 94.1479C277.707 94.1479 282.067 99.0961 281.981 105.077C281.981 111.101 277.664 116.006 272.236 116.006ZM308.267 116.006C302.924 116.006 298.522 111.101 298.522 105.077C298.522 99.053 302.839 94.1479 308.267 94.1479C313.738 94.1479 318.098 99.0961 318.012 105.077C318.012 111.101 313.738 116.006 308.267 116.006Z" fill="white"/>
</g>
<path d="M393.844 122L411.125 77.6562H417.156L434.188 121.156L428.219 122.438L423.031 108.75H405.062L400.125 122H393.844ZM414.031 84.6875L406.969 103.438H421.062L414.031 84.6875ZM466 122H461.469L460.781 117.594C457.969 120.948 454.656 122.625 450.844 122.625C449.156 122.625 447.594 122.323 446.156 121.719C444.74 121.094 443.469 120.177 442.344 118.969C441.24 117.76 440.375 116.188 439.75 114.25C439.125 112.312 438.812 110.094 438.812 107.594C438.812 104.885 439.177 102.469 439.906 100.344C440.656 98.1979 441.667 96.4688 442.938 95.1562C444.208 93.8229 445.667 92.8125 447.312 92.125C448.958 91.4375 450.729 91.0938 452.625 91.0938C455.562 91.0938 458.125 91.5417 460.312 92.4375V76.6875L466 75.7812V122ZM460.312 112.219V97.625C459.083 97 457.917 96.5521 456.812 96.2812C455.729 96.0104 454.406 95.875 452.844 95.875C450.365 95.875 448.365 96.875 446.844 98.875C445.323 100.854 444.562 103.677 444.562 107.344C444.562 110.615 445.219 113.146 446.531 114.938C447.844 116.708 449.562 117.594 451.688 117.594C453.354 117.594 454.875 117.135 456.25 116.219C457.646 115.302 459 113.969 460.312 112.219ZM500.438 122H495.906L495.219 117.594C492.406 120.948 489.094 122.625 485.281 122.625C483.594 122.625 482.031 122.323 480.594 121.719C479.177 121.094 477.906 120.177 476.781 118.969C475.677 117.76 474.812 116.188 474.188 114.25C473.562 112.312 473.25 110.094 473.25 107.594C473.25 104.885 473.615 102.469 474.344 100.344C475.094 98.1979 476.104 96.4688 477.375 95.1562C478.646 93.8229 480.104 92.8125 481.75 92.125C483.396 91.4375 485.167 91.0938 487.062 91.0938C490 91.0938 492.562 91.5417 494.75 92.4375V76.6875L500.438 75.7812V122ZM494.75 112.219V97.625C493.521 97 492.354 96.5521 491.25 96.2812C490.167 96.0104 488.844 95.875 487.281 95.875C484.802 95.875 482.802 96.875 481.281 98.875C479.76 100.854 479 103.677 479 107.344C479 110.615 479.656 113.146 480.969 114.938C482.281 116.708 484 117.594 486.125 117.594C487.792 117.594 489.312 117.135 490.688 116.219C492.083 115.302 493.438 113.969 494.75 112.219ZM538.125 122.125C536.833 122.375 535.406 122.5 533.844 122.5C530.969 122.5 528.76 121.885 527.219 120.656C525.698 119.427 524.938 117.354 524.938 114.438V96.2812H520.344V91.4688H524.938V81.2812L530.531 80.4688V91.4688H537.125L537.875 96.2812H530.531V113.438C530.531 114.771 530.854 115.781 531.5 116.469C532.146 117.135 533.229 117.469 534.75 117.469C535.667 117.469 536.542 117.396 537.375 117.25L538.125 122.125ZM571.531 106.781C571.531 111.698 570.208 115.573 567.562 118.406C564.938 121.219 561.531 122.625 557.344 122.625C553.177 122.625 549.792 121.219 547.188 118.406C544.604 115.594 543.312 111.719 543.312 106.781C543.312 101.844 544.615 97.9583 547.219 95.125C549.823 92.2708 553.198 90.8438 557.344 90.8438C561.531 90.8438 564.938 92.2708 567.562 95.125C570.208 97.9583 571.531 101.844 571.531 106.781ZM565.781 106.781C565.781 103.51 565.042 100.823 563.562 98.7188C562.083 96.6146 560.01 95.5625 557.344 95.5625C554.677 95.5625 552.625 96.6042 551.188 98.6875C549.771 100.75 549.062 103.448 549.062 106.781C549.062 110.031 549.792 112.698 551.25 114.781C552.708 116.865 554.74 117.906 557.344 117.906C560.073 117.906 562.156 116.885 563.594 114.844C565.052 112.802 565.781 110.115 565.781 106.781ZM618.062 110.094C618.062 113.865 616.781 116.875 614.219 119.125C611.656 121.375 608.292 122.5 604.125 122.5C599.521 122.5 595.406 121.542 591.781 119.625L592.656 113.5C596.469 116 600.333 117.25 604.25 117.25C606.604 117.25 608.5 116.656 609.938 115.469C611.396 114.281 612.125 112.635 612.125 110.531C612.125 108.552 611.552 106.99 610.406 105.844C609.281 104.698 607.031 103.365 603.656 101.844C601.469 100.844 599.698 99.9375 598.344 99.125C596.99 98.2917 595.823 97.375 594.844 96.375C593.885 95.375 593.208 94.2917 592.812 93.125C592.417 91.9375 592.219 90.5521 592.219 88.9688C592.219 85.4479 593.448 82.625 595.906 80.5C598.385 78.375 601.635 77.3125 605.656 77.3125C609.427 77.3125 612.771 78.1458 615.688 79.8125L614.75 85.8438C611.854 83.6562 608.76 82.5625 605.469 82.5625C603.052 82.5625 601.229 83.125 600 84.25C598.771 85.375 598.156 86.8021 598.156 88.5312C598.156 90.2396 598.708 91.625 599.812 92.6875C600.938 93.75 603.188 95.0521 606.562 96.5938C609.542 97.9479 611.823 99.2188 613.406 100.406C614.99 101.573 616.156 102.927 616.906 104.469C617.677 105.99 618.062 107.865 618.062 110.094ZM650.25 118.531C646.792 121.26 642.719 122.625 638.031 122.625C636.01 122.625 634.156 122.312 632.469 121.688C630.781 121.042 629.281 120.094 627.969 118.844C626.677 117.573 625.667 115.906 624.938 113.844C624.229 111.76 623.875 109.354 623.875 106.625C623.875 101.812 625.135 97.9792 627.656 95.125C630.177 92.2708 633.396 90.8438 637.312 90.8438C640.188 90.8438 642.615 91.5417 644.594 92.9375C646.594 94.3333 648.042 96.1562 648.938 98.4062C649.854 100.656 650.312 103.229 650.312 106.125V107.344H629.562C629.646 110.802 630.469 113.406 632.031 115.156C633.594 116.906 635.74 117.781 638.469 117.781C640.531 117.781 642.417 117.417 644.125 116.688C645.833 115.958 647.594 114.875 649.406 113.438L650.25 118.531ZM637.25 95.3125C635.417 95.3125 633.833 95.9792 632.5 97.3125C631.167 98.625 630.281 100.542 629.844 103.062H644.562C643.812 97.8958 641.375 95.3125 637.25 95.3125ZM674.625 96.2812C672.188 96.4062 669.948 97.1875 667.906 98.625C665.885 100.062 664.333 101.833 663.25 103.938V122H657.531V91.4688H662.094L663.031 97.6875C664.24 95.75 665.74 94.1562 667.531 92.9062C669.344 91.6562 671.417 90.9688 673.75 90.8438L674.625 96.2812ZM704.688 91.4688L693.844 122.188H688.281L677.531 91.9062L683.375 91.0312L691.156 115.156L698.719 91.4688H704.688ZM735.25 118.531C731.792 121.26 727.719 122.625 723.031 122.625C721.01 122.625 719.156 122.312 717.469 121.688C715.781 121.042 714.281 120.094 712.969 118.844C711.677 117.573 710.667 115.906 709.938 113.844C709.229 111.76 708.875 109.354 708.875 106.625C708.875 101.812 710.135 97.9792 712.656 95.125C715.177 92.2708 718.396 90.8438 722.312 90.8438C725.188 90.8438 727.615 91.5417 729.594 92.9375C731.594 94.3333 733.042 96.1562 733.938 98.4062C734.854 100.656 735.312 103.229 735.312 106.125V107.344H714.562C714.646 110.802 715.469 113.406 717.031 115.156C718.594 116.906 720.74 117.781 723.469 117.781C725.531 117.781 727.417 117.417 729.125 116.688C730.833 115.958 732.594 114.875 734.406 113.438L735.25 118.531ZM722.25 95.3125C720.417 95.3125 718.833 95.9792 717.5 97.3125C716.167 98.625 715.281 100.542 714.844 103.062H729.562C728.812 97.8958 726.375 95.3125 722.25 95.3125ZM759.625 96.2812C757.188 96.4062 754.948 97.1875 752.906 98.625C750.885 100.062 749.333 101.833 748.25 103.938V122H742.531V91.4688H747.094L748.031 97.6875C749.24 95.75 750.74 94.1562 752.531 92.9062C754.344 91.6562 756.417 90.9688 758.75 90.8438L759.625 96.2812Z" fill="white"/>
<defs>
<clipPath id="clip0_105_2">
<rect width="108.436" height="84" fill="white" transform="translate(236 59)"/>
</clipPath>
</defs>
</svg>
