<svg width="1200" height="1200" viewBox="0 0 1200 1200" fill="none" xmlns="http://www.w3.org/2000/svg">
<rect width="1200" height="1200" fill="white"/>
<rect y="720" width="480" height="480" fill="#FC0000"/>
<rect x="80" y="800" width="320" height="320" rx="32" fill="white"/>
<rect x="120" y="1000" width="80" height="80" rx="40" fill="#FC0000"/>
<rect x="280" y="1000" width="80" height="80" rx="40" fill="#FC0000"/>
<rect x="280" y="840" width="80" height="80" rx="40" fill="#FC0000"/>
<rect x="120" y="840" width="80" height="80" rx="40" fill="#FC0000"/>
<rect x="720" y="720" width="480" height="480" fill="#00ACFF"/>
<rect x="800" y="800" width="320" height="320" rx="32" fill="white"/>
<rect x="840" y="1000" width="80" height="80" rx="40" fill="#00ACFF"/>
<rect x="1000" y="1000" width="80" height="80" rx="40" fill="#00ACFF"/>
<rect x="1000" y="840" width="80" height="80" rx="40" fill="#00ACFF"/>
<rect x="840" y="840" width="80" height="80" rx="40" fill="#00ACFF"/>
<rect x="480" y="720" width="80" height="80" fill="white" stroke="#BEBEBE" stroke-width="2"/>
<rect x="480" y="800" width="80" height="80" fill="white" stroke="#BEBEBE" stroke-width="2"/>
<rect x="480" y="880" width="80" height="80" fill="white" stroke="#BEBEBE" stroke-width="2"/>
<rect x="480" y="960" width="80" height="80" fill="white" stroke="#BEBEBE" stroke-width="2"/>
<rect x="560" y="720" width="80" height="80" fill="#FC0000" stroke="#BEBEBE" stroke-width="2"/>
<rect x="560" y="800" width="80" height="80" fill="#FC0000" stroke="#BEBEBE" stroke-width="2"/>
<rect x="560" y="880" width="80" height="80" fill="#FC0000" stroke="#BEBEBE" stroke-width="2"/>
<rect x="560" y="960" width="80" height="80" fill="#FC0000" stroke="#BEBEBE" stroke-width="2"/>
<rect x="560" y="1040" width="80" height="80" fill="#FC0000" stroke="#BEBEBE" stroke-width="2"/>
<rect x="480" y="1040" width="80" height="80" fill="#FC0000" stroke="#BEBEBE" stroke-width="2"/>
<path d="M520 1056L525.388 1072.58H542.825L528.719 1082.83L534.107 1099.42L520 1089.17L505.893 1099.42L511.281 1082.83L497.175 1072.58H514.612L520 1056Z" fill="#F9F9F9"/>
<rect x="640" y="720" width="80" height="80" fill="white" stroke="#BEBEBE" stroke-width="2"/>
<rect x="640" y="800" width="80" height="80" fill="white" stroke="#BEBEBE" stroke-width="2"/>
<rect x="640" y="880" width="80" height="80" fill="white" stroke="#BEBEBE" stroke-width="2"/>
<rect x="640" y="1040" width="80" height="80" fill="white" stroke="#BEBEBE" stroke-width="2"/>
<rect x="640" y="960" width="80" height="80" fill="white" stroke="#BEBEBE" stroke-width="2"/>
<path d="M680 979.236L684.437 992.893L684.662 993.584H685.388H699.748L688.131 1002.02L687.543 1002.45L687.767 1003.14L692.205 1016.8L680.588 1008.36L680 1007.93L679.412 1008.36L667.795 1016.8L672.233 1003.14L672.457 1002.45L671.869 1002.02L660.252 993.584H674.612H675.338L675.563 992.893L680 979.236Z" fill="#FC0000" stroke="#2D2D2D" stroke-width="2"/>
<path d="M480 1120H560V1200H480V1120Z" fill="white"/>
<path d="M479 1119H561L559 1121H481L479 1119ZM560 1200H480H560ZM479 1200V1119L481 1121V1200H479ZM561 1119V1200H559V1121L561 1119Z" fill="#BEBEBE"/>
<path d="M640 1120H720V1200H640V1120Z" fill="white"/>
<path d="M639 1119H721L719 1121H641L639 1119ZM720 1200H640H720ZM639 1200V1119L641 1121V1200H639ZM721 1119V1200H719V1121L721 1119Z" fill="#BEBEBE"/>
<path d="M560 1120H640V1200H560V1120Z" fill="white"/>
<path d="M559 1119H641L639 1121H561L559 1119ZM640 1200H560H640ZM559 1200V1119L561 1121V1200H559ZM641 1119V1200H639V1121L641 1119Z" fill="#BEBEBE"/>
<path d="M598 1180C598 1181.1 598.895 1182 600 1182C601.105 1182 602 1181.1 602 1180L598 1180ZM601.414 1138.59C600.633 1137.8 599.367 1137.8 598.586 1138.59L585.858 1151.31C585.077 1152.09 585.077 1153.36 585.858 1154.14C586.639 1154.92 587.905 1154.92 588.686 1154.14L600 1142.83L611.314 1154.14C612.095 1154.92 613.361 1154.92 614.142 1154.14C614.923 1153.36 614.923 1152.09 614.142 1151.31L601.414 1138.59ZM602 1180L602 1140L598 1140L598 1180L602 1180Z" fill="#FC0000"/>
<rect x="720" width="480" height="480" fill="#FFE800"/>
<rect x="800" y="80" width="320" height="320" rx="32" fill="white"/>
<rect x="840" y="280" width="80" height="80" rx="40" fill="#FFE800"/>
<rect x="1000" y="280" width="80" height="80" rx="40" fill="#FFE800"/>
<rect x="1000" y="120" width="80" height="80" rx="40" fill="#FFE800"/>
<rect x="840" y="120" width="80" height="80" rx="40" fill="#FFE800"/>
<rect width="480" height="480" fill="#009A2B"/>
<rect x="80" y="80" width="320" height="320" rx="32" fill="white"/>
<rect x="120" y="280" width="80" height="80" rx="40" fill="#009A2B"/>
<rect x="280" y="280" width="80" height="80" rx="40" fill="#009A2B"/>
<rect x="280" y="120" width="80" height="80" rx="40" fill="#009A2B"/>
<rect x="120" y="120" width="80" height="80" rx="40" fill="#009A2B"/>
<rect x="640" y="160" width="80" height="80" fill="white" stroke="#BEBEBE" stroke-width="2"/>
<rect x="640" y="240" width="80" height="80" fill="white" stroke="#BEBEBE" stroke-width="2"/>
<rect x="640" y="320" width="80" height="80" fill="white" stroke="#BEBEBE" stroke-width="2"/>
<rect x="640" y="400" width="80" height="80" fill="white" stroke="#BEBEBE" stroke-width="2"/>
<rect x="560" y="80" width="80" height="80" fill="#FFE800" stroke="#BEBEBE" stroke-width="2"/>
<rect x="560" y="160" width="80" height="80" fill="#FFE800" stroke="#BEBEBE" stroke-width="2"/>
<rect x="560" y="240" width="80" height="80" fill="#FFE800" stroke="#BEBEBE" stroke-width="2"/>
<rect x="560" y="320" width="80" height="80" fill="#FFE800" stroke="#BEBEBE" stroke-width="2"/>
<rect x="560" y="400" width="80" height="80" fill="#FFE800" stroke="#BEBEBE" stroke-width="2"/>
<rect x="640" y="80" width="80" height="80" fill="#FFE800" stroke="#BEBEBE" stroke-width="2"/>
<path d="M680 96L685.388 112.584H702.825L688.719 122.833L694.107 139.416L680 129.167L665.893 139.416L671.281 122.833L657.175 112.584H674.612L680 96Z" fill="#F9F9F9"/>
<path d="M480 0H560V80H480V0Z" fill="white"/>
<path d="M480 0H560H480ZM561 81H479L481 79H559L561 81ZM479 81V0H481V79L479 81ZM561 0V81L559 79V0H561Z" fill="#BEBEBE"/>
<path d="M560 0H640V80H560V0Z" fill="white"/>
<path d="M560 0H640H560ZM641 81H559L561 79H639L641 81ZM559 81V0H561V79L559 81ZM641 0V81L639 79V0H641Z" fill="#BEBEBE"/>
<path d="M602 20C602 18.8954 601.105 18 600 18C598.895 18 598 18.8954 598 20L602 20ZM598.586 61.4142C599.367 62.1953 600.633 62.1953 601.414 61.4142L614.142 48.6863C614.923 47.9052 614.923 46.6389 614.142 45.8579C613.361 45.0768 612.095 45.0768 611.314 45.8579L600 57.1716L588.686 45.8579C587.905 45.0768 586.639 45.0768 585.858 45.8579C585.077 46.6389 585.077 47.9052 585.858 48.6863L598.586 61.4142ZM598 20L598 60L602 60L602 20L598 20Z" fill="#FFE800"/>
<path d="M640 0H720V80H640V0Z" fill="white"/>
<path d="M640 0H720H640ZM721 81H639L641 79H719L721 81ZM639 81V0H641V79L639 81ZM721 0V81L719 79V0H721Z" fill="#BEBEBE"/>
<rect x="480" y="80" width="80" height="80" fill="white" stroke="#BEBEBE" stroke-width="2"/>
<rect x="480" y="240" width="80" height="80" fill="white" stroke="#BEBEBE" stroke-width="2"/>
<rect x="480" y="320" width="80" height="80" fill="white" stroke="#BEBEBE" stroke-width="2"/>
<rect x="480" y="400" width="80" height="80" fill="white" stroke="#BEBEBE" stroke-width="2"/>
<rect x="480" y="160" width="80" height="80" fill="white" stroke="#BEBEBE" stroke-width="2"/>
<path d="M520 179.236L524.437 192.893L524.662 193.584H525.388H539.748L528.131 202.024L527.543 202.451L527.767 203.142L532.205 216.798L520.588 208.358L520 207.931L519.412 208.358L507.795 216.798L512.233 203.142L512.457 202.451L511.869 202.024L500.252 193.584H514.612H515.338L515.563 192.893L520 179.236Z" fill="#FFE800" stroke="#2D2D2D" stroke-width="2"/>
<mask id="path-73-inside-1_6_381" fill="white">
<path d="M720 480H480L600 600L720 480Z"/>
<path d="M720 720V480L600 600L720 720Z"/>
<path d="M480 720H720L600 600L480 720Z"/>
<path d="M480 480V720L600 600L480 480Z"/>
</mask>
<path d="M720 480H480L600 600L720 480Z" fill="#FFE800"/>
<path d="M720 720V480L600 600L720 720Z" fill="#00ACFF"/>
<path d="M480 720H720L600 600L480 720Z" fill="#FC0000"/>
<path d="M480 480V720L600 600L480 480Z" fill="#009A2B"/>
<path d="M479.646 480.354L599.646 600.354L600.354 599.646L480.354 479.646L479.646 480.354ZM600.354 600.354L720.354 480.354L719.646 479.646L599.646 599.646L600.354 600.354ZM599.646 599.646L479.646 719.646L480.354 720.354L600.354 600.354L599.646 599.646ZM599.646 600.354L719.646 720.354L720.354 719.646L600.354 599.646L599.646 600.354ZM480 480V479H479V480H480ZM720 480H721V479H720V480ZM720 720V721H721V720H720ZM480 720H479V721H480V720ZM480 481H720V479H480V481ZM719 480V720H721V480H719ZM720 719H480V721H720V719ZM481 720V480H479V720H481Z" fill="#BEBEBE" mask="url(#path-73-inside-1_6_381)"/>
<rect x="80" y="560" width="80" height="80" fill="#009A2B" stroke="#BEBEBE" stroke-width="2"/>
<rect x="160" y="560" width="80" height="80" fill="#009A2B" stroke="#BEBEBE" stroke-width="2"/>
<rect x="240" y="560" width="80" height="80" fill="#009A2B" stroke="#BEBEBE" stroke-width="2"/>
<rect x="320" y="560" width="80" height="80" fill="#009A2B" stroke="#BEBEBE" stroke-width="2"/>
<rect x="400" y="560" width="80" height="80" fill="#009A2B" stroke="#BEBEBE" stroke-width="2"/>
<rect x="80" y="480" width="80" height="80" fill="#009A2B" stroke="#BEBEBE" stroke-width="2"/>
<path d="M120 496L125.388 512.584H142.825L128.719 522.833L134.107 539.416L120 529.167L105.893 539.416L111.281 522.833L97.1746 512.584H114.612L120 496Z" fill="#F9F9F9"/>
<rect x="80" y="640" width="80" height="80" fill="white" stroke="#BEBEBE" stroke-width="2"/>
<rect x="240" y="640" width="80" height="80" fill="white" stroke="#BEBEBE" stroke-width="2"/>
<rect x="320" y="640" width="80" height="80" fill="white" stroke="#BEBEBE" stroke-width="2"/>
<rect x="400" y="640" width="80" height="80" fill="white" stroke="#BEBEBE" stroke-width="2"/>
<rect x="160" y="640" width="80" height="80" fill="white" stroke="#BEBEBE" stroke-width="2"/>
<path d="M200 659.236L204.437 672.893L204.662 673.584H205.388H219.748L208.131 682.024L207.543 682.451L207.767 683.142L212.205 696.798L200.588 688.358L200 687.931L199.412 688.358L187.795 696.798L192.233 683.142L192.457 682.451L191.869 682.024L180.252 673.584H194.612H195.338L195.563 672.893L200 659.236Z" fill="#009A2B" stroke="#2D2D2D" stroke-width="2"/>
<rect x="160" y="480" width="80" height="80" fill="white" stroke="#BEBEBE" stroke-width="2"/>
<rect x="240" y="480" width="80" height="80" fill="white" stroke="#BEBEBE" stroke-width="2"/>
<rect x="320" y="480" width="80" height="80" fill="white" stroke="#BEBEBE" stroke-width="2"/>
<rect x="400" y="480" width="80" height="80" fill="white" stroke="#BEBEBE" stroke-width="2"/>
<path d="M0 480H80V560H0V480Z" fill="white"/>
<path d="M0 479H81L79 481H0V479ZM81 561H0V559H79L81 561ZM0 560V480V560ZM81 479V561L79 559V481L81 479Z" fill="#BEBEBE"/>
<path d="M0 640H80V720H0V640Z" fill="white"/>
<path d="M0 639H81L79 641H0V639ZM81 721H0V719H79L81 721ZM0 720V640V720ZM81 639V721L79 719V641L81 639Z" fill="#BEBEBE"/>
<path d="M0 560H80V640H0V560Z" fill="white"/>
<path d="M0 559H81L79 561H0V559ZM81 641H0V639H79L81 641ZM0 640V560V640ZM81 559V641L79 639V561L81 559Z" fill="#BEBEBE"/>
<path d="M20 598C18.8954 598 18 598.895 18 600C18 601.105 18.8954 602 20 602V598ZM61.4142 601.414C62.1953 600.633 62.1953 599.367 61.4142 598.586L48.6863 585.858C47.9052 585.077 46.6389 585.077 45.8579 585.858C45.0768 586.639 45.0768 587.905 45.8579 588.686L57.1716 600L45.8579 611.314C45.0768 612.095 45.0768 613.361 45.8579 614.142C46.6389 614.923 47.9052 614.923 48.6863 614.142L61.4142 601.414ZM20 602H60V598H20V602Z" fill="#009A2B"/>
<rect x="720" y="560" width="80" height="80" fill="#00ACFF" stroke="#BEBEBE" stroke-width="2"/>
<rect x="800" y="560" width="80" height="80" fill="#00ACFF" stroke="#BEBEBE" stroke-width="2"/>
<rect x="880" y="560" width="80" height="80" fill="#00ACFF" stroke="#BEBEBE" stroke-width="2"/>
<rect x="960" y="560" width="80" height="80" fill="#00ACFF" stroke="#BEBEBE" stroke-width="2"/>
<rect x="1040" y="560" width="80" height="80" fill="#00ACFF" stroke="#BEBEBE" stroke-width="2"/>
<rect x="1040" y="640" width="80" height="80" fill="#00ACFF" stroke="#BEBEBE" stroke-width="2"/>
<path d="M1080 656L1085.39 672.584H1102.83L1088.72 682.833L1094.11 699.416L1080 689.167L1065.89 699.416L1071.28 682.833L1057.17 672.584H1074.61L1080 656Z" fill="#F9F9F9"/>
<path d="M1120 480H1200V560H1120V480Z" fill="white"/>
<path d="M1119 479H1200V481H1121L1119 479ZM1200 561H1119L1121 559H1200V561ZM1119 561V479L1121 481V559L1119 561ZM1200 480V560V480Z" fill="#BEBEBE"/>
<path d="M1120 640H1200V720H1120V640Z" fill="white"/>
<path d="M1119 639H1200V641H1121L1119 639ZM1200 721H1119L1121 719H1200V721ZM1119 721V639L1121 641V719L1119 721ZM1200 640V720V640Z" fill="#BEBEBE"/>
<rect x="720" y="640" width="80" height="80" fill="white" stroke="#BEBEBE" stroke-width="2"/>
<rect x="800" y="640" width="80" height="80" fill="white" stroke="#BEBEBE" stroke-width="2"/>
<rect x="880" y="640" width="80" height="80" fill="white" stroke="#BEBEBE" stroke-width="2"/>
<rect x="960" y="640" width="80" height="80" fill="white" stroke="#BEBEBE" stroke-width="2"/>
<rect x="720" y="480" width="80" height="80" fill="white" stroke="#BEBEBE" stroke-width="2"/>
<rect x="800" y="480" width="80" height="80" fill="white" stroke="#BEBEBE" stroke-width="2"/>
<rect x="880" y="480" width="80" height="80" fill="white" stroke="#BEBEBE" stroke-width="2"/>
<rect x="1040" y="480" width="80" height="80" fill="white" stroke="#BEBEBE" stroke-width="2"/>
<rect x="960" y="480" width="80" height="80" fill="white" stroke="#BEBEBE" stroke-width="2"/>
<path d="M1000 499.236L1004.44 512.893L1004.66 513.584H1005.39H1019.75L1008.13 522.024L1007.54 522.451L1007.77 523.142L1012.2 536.798L1000.59 528.358L1000 527.931L999.412 528.358L987.795 536.798L992.233 523.142L992.457 522.451L991.869 522.024L980.252 513.584H994.612H995.338L995.563 512.893L1000 499.236Z" fill="#00ACFF" stroke="#2D2D2D" stroke-width="2"/>
<path d="M1120 560H1200V640H1120V560Z" fill="white"/>
<path d="M1119 559H1200V561H1121L1119 559ZM1200 641H1119L1121 639H1200V641ZM1119 641V559L1121 561V639L1119 641ZM1200 560V640V560Z" fill="#BEBEBE"/>
<path d="M1180 602C1181.1 602 1182 601.105 1182 600C1182 598.895 1181.1 598 1180 598V602ZM1138.59 598.586C1137.8 599.367 1137.8 600.633 1138.59 601.414L1151.31 614.142C1152.09 614.923 1153.36 614.923 1154.14 614.142C1154.92 613.361 1154.92 612.095 1154.14 611.314L1142.83 600L1154.14 588.686C1154.92 587.905 1154.92 586.639 1154.14 585.858C1153.36 585.077 1152.09 585.077 1151.31 585.858L1138.59 598.586ZM1180 598H1140V602H1180V598Z" fill="#00ACFF"/>
</svg>
